<svg width="160" height="160" viewBox="0 0 160 160" fill="none" xmlns="http://www.w3.org/2000/svg">
  <defs>
    <linearGradient id="eteGradient" x1="20" y1="10" x2="140" y2="150" gradientUnits="userSpaceOnUse">
      <stop stop-color="#4F46E5" />
      <stop offset="1" stop-color="#0EA5E9" />
    </linearGradient>
    <linearGradient id="accentGradient" x1="60" y1="30" x2="120" y2="120" gradientUnits="userSpaceOnUse">
      <stop stop-color="#E0E7FF" stop-opacity="0.9" />
      <stop offset="1" stop-color="#A5F3FC" stop-opacity="0.9" />
    </linearGradient>
    <filter id="softGlow" x="-10%" y="-10%" width="120%" height="120%" color-interpolation-filters="sRGB">
      <feDropShadow dx="0" dy="8" stdDeviation="12" flood-color="#1E293B" flood-opacity="0.18" />
    </filter>
  </defs>
  <rect x="8" y="8" width="144" height="144" rx="32" fill="url(#eteGradient)" filter="url(#softGlow)" />
  <rect x="36" y="36" width="88" height="88" rx="20" fill="url(#accentGradient)" opacity="0.38" />
  <path d="M54 52C54 49.7909 55.7909 48 58 48H104C106.209 48 108 49.7909 108 52V60C108 62.2091 106.209 64 104 64H74V72H98C100.209 72 102 73.7909 102 76V84C102 86.2091 100.209 88 98 88H74V96H104C106.209 96 108 97.7909 108 100V108C108 110.209 106.209 112 104 112H58C55.7909 112 54 110.209 54 108V52Z" fill="white" />
  <circle cx="66" cy="66" r="10" fill="#0EA5E9" opacity="0.92" />
  <circle cx="94" cy="50" r="6" fill="#2563EB" opacity="0.9" />
</svg>
